# xmcd
#
# Track frame offsets:
#	150
#	29606
#	55757
#	113543
#	152129
#	200720
#	216817
#
# Disc length: 3241 seconds
#
# Revision: 0
# Processed by: cddbd v1.5.1PL0 Copyright (c) Steve Scherf et al.
# Submitted via: EasyCDDAExtractor 5.0.2.1
#
DISCID=5e0ca707
DTITLE=Jürgen Kerth
DYEAR=1900
DGENRE=Blues
TTITLE0=Daß dir einer hilft
TTITLE1=Frühlingsmelancholie
TTITLE2=Mit ihr zu leben...
TTITLE3=Komm herein
TTITLE4=Martha
TTITLE5=Wieder mal reingefallen
TTITLE6=Blues vom Blues
EXTD=
EXTT0=
EXTT1=
EXTT2=
EXTT3=
EXTT4=
EXTT5=
EXTT6=
PLAYORDER=
